<?xml version="1.0" encoding="UTF-8" standalone="no"?>
<!DOCTYPE svg PUBLIC "-//W3C//DTD SVG 1.1//EN" "http://www.w3.org/Graphics/SVG/1.1/DTD/svg11.dtd">
<svg width="100%" height="100%" viewBox="0 0 612 612" version="1.1" xmlns="http://www.w3.org/2000/svg" xmlns:xlink="http://www.w3.org/1999/xlink" xml:space="preserve" xmlns:serif="http://www.serif.com/" style="fill-rule:evenodd;clip-rule:evenodd;stroke-linecap:round;stroke-linejoin:round;stroke-miterlimit:1.5;">
    <path d="M103.623,119.038C99.864,124.101 104.683,127.22 129.804,157.376C144.87,175.461 180.463,213.215 172.414,215.086C171.483,222.308 159.897,206.934 155.875,213.9C152.037,220.548 213.214,262.42 203.954,271.422C198.93,280.372 159.182,230.118 153.664,241.814C142.012,261.587 223.608,313.318 213.471,323.053C206.378,329.864 193.96,313.588 192.636,323.409C191.263,333.588 216.459,346.039 237.348,360.577C260.513,384.769 265.498,405.968 287.005,432.76C332.717,466.112 383.358,446.93 404.901,424.37C445.095,379.076 445.964,340.586 424.278,306C404.455,276.206 371.232,255.09 346.74,231.753C317.955,204.324 295.835,165.953 288.075,170.149C278.403,179.73 317.258,205.424 306,209.755C301.321,212.765 286.099,198.794 267.282,179.032C251.036,157.356 236.187,139.927 229.25,146.556C217.431,156.543 288.67,220.669 274.677,226.281C262.244,239.447 197.256,120.861 157.035,121.761C152.436,128.129 160.218,138.485 173.015,150.456C194.817,167.632 198.704,178.099 191.742,184.504C178.088,190.502 159.559,161.876 145.915,150.994C130.795,138.935 115.182,111.21 103.623,119.038Z" style="fill:rgb(244,119,53);stroke:rgb(244,119,53);stroke-width:1px;"/>
    <path d="M209.736,219.489C200.498,226.988 219.871,242.929 236.566,261.461C257.064,286.068 264.617,303.437 263.632,316.033C257.298,324.992 250.103,303.348 240.276,306C233.275,310.871 246.528,326.014 260.036,342.633C271.707,356.993 274.941,377.965 280.786,390.688C286.174,402.375 293.653,410.918 303.138,416.445C311.468,441.791 325.404,446.688 344.096,434.235C366.498,434.798 383.025,428.378 394.046,415.409C401.236,412.529 407.672,407.39 412.854,398.494C419.435,379.861 422.771,361.234 420.545,342.785C419.279,331.915 415.419,321.328 408.108,311.116C406.608,301.853 398.296,291.419 392.46,287.535C387.085,283.957 378.718,288.832 373.092,287.809C362.596,285.504 349.211,280.886 340.052,273.342C328.778,264.057 322.076,251.834 312.861,252.155C299.978,258.047 320.14,267.378 310.544,271.533C307.612,273.346 301.706,270.13 294.63,263.054C288.137,256.56 280.748,246.138 271.858,247.946C262.93,255.409 282.553,262.438 272.804,265.578C257.811,268.516 228.803,215.888 209.736,219.489Z" style="fill:rgb(255,231,125);"/>
    <path d="M312.515,416.047C292.171,404.086 278.467,381.675 278.467,356.024C278.467,317.819 308.869,286.801 346.315,286.801C357.92,286.801 368.848,289.78 378.405,295.029C379.863,294.667 381.398,294.473 382.985,294.473C392.409,294.473 400.06,301.307 400.06,309.724C400.06,310.92 399.905,312.085 399.612,313.204C408.723,324.988 414.163,339.863 414.163,356.024C414.163,367.046 411.633,377.47 407.134,386.721C407.216,387.52 407.258,388.336 407.258,389.168C407.258,397.905 402.593,404.998 396.847,404.998C396.077,404.998 395.327,404.871 394.605,404.63C382.299,417.356 365.203,425.247 346.315,425.247C344.469,425.247 342.64,425.172 340.835,425.024C338.613,430.341 333.255,434.093 327.005,434.093C318.768,434.093 312.08,427.575 312.08,419.546C312.08,418.34 312.231,417.168 312.515,416.047Z" style="fill:rgb(182,150,118);"/>
    <path d="M356.821,287.628C364.519,288.85 371.79,291.396 378.405,295.029C379.863,294.667 381.398,294.473 382.985,294.473C392.409,294.473 400.06,301.307 400.06,309.724C400.06,310.92 399.905,312.085 399.612,313.204C408.723,324.988 414.163,339.863 414.163,356.024C414.163,367.046 411.633,377.47 407.134,386.721C407.216,387.52 407.258,388.336 407.258,389.168C407.258,397.905 402.593,404.998 396.847,404.998C396.077,404.998 395.327,404.871 394.605,404.63C382.299,417.356 365.203,425.247 346.315,425.247C344.469,425.247 342.64,425.172 340.835,425.024C338.613,430.341 333.255,434.093 327.005,434.093C318.768,434.093 312.08,427.575 312.08,419.546C312.08,418.34 312.231,417.168 312.515,416.047C308.212,413.518 304.207,410.52 300.564,407.123C308.502,408.641 322.827,411.069 331.163,410.616C343.14,409.964 359.683,408.579 366.707,402.061C373.731,395.543 370.361,379.416 373.306,371.508C375.657,365.198 385.449,360.98 384.38,354.613C383.311,348.245 369.349,342.157 366.895,333.302C363.551,321.233 364.586,305.094 356.821,287.628Z" style="fill:rgb(129,106,83);"/>
    <path d="M310.591,314.182C311.677,316.855 324.967,313.578 329.812,310.258C334.656,306.938 340.743,296.934 339.658,294.262C338.572,291.589 327.795,291.138 323.296,294.221C318.452,297.541 309.505,311.509 310.591,314.182Z" style="fill:rgb(78,71,67);"/>
    <path d="M335.428,351.314C333.405,355.699 332.364,368.471 334.178,372.705C335.857,376.621 342.451,377.719 346.315,376.716C350.179,375.713 354.955,371.039 357.364,366.687C359.912,362.084 363.444,352.476 361.603,349.094C359.761,345.712 346.315,346.393 346.315,346.393C346.315,346.393 337.096,347.698 335.428,351.314Z" style="fill:rgb(78,71,67);"/>
    <path d="M313.931,360.447C311.828,359.924 308.202,360.046 306,361.555C303.772,363.081 300.564,367.078 300.564,369.605C300.564,372.132 303.391,376.148 306,376.716C308.609,377.284 314.114,375.016 316.217,373.013C318.306,371.022 318.999,366.789 318.619,364.695C318.241,362.621 315.977,360.956 313.931,360.447Z" style="fill:rgb(78,71,67);"/>
    <path d="M344.189,387.005C343.823,388.805 346.855,392.561 349.288,393.93C351.722,395.299 357.379,396.583 358.792,395.219C360.206,393.855 358.988,387.76 357.77,385.745C356.596,383.803 353.744,382.921 351.485,383.131C349.221,383.341 344.555,385.206 344.189,387.005Z" style="fill:rgb(78,71,67);"/>
    <path d="M315.946,418.38C314.868,419.304 317.407,425.715 320.158,427.41C322.909,429.106 331.376,429.475 332.454,428.551C333.532,427.627 329.144,423.418 326.627,421.867C323.876,420.172 317.025,417.456 315.946,418.38Z" style="fill:rgb(78,71,67);"/>
</svg>
