<?xml version="1.0" encoding="UTF-8" standalone="no"?>
<!DOCTYPE svg PUBLIC "-//W3C//DTD SVG 1.1//EN" "http://www.w3.org/Graphics/SVG/1.1/DTD/svg11.dtd">
<svg width="100%" height="100%" viewBox="0 0 1280 800" version="1.1" xmlns="http://www.w3.org/2000/svg" xmlns:xlink="http://www.w3.org/1999/xlink" xml:space="preserve" xmlns:serif="http://www.serif.com/" style="fill-rule:evenodd;clip-rule:evenodd;stroke-linecap:round;stroke-linejoin:round;stroke-miterlimit:1.5;">
    <g id="Ufo" transform="matrix(0.0278272,0.0141549,0.0141549,-0.0278272,445.458,479.735)">
        <g transform="matrix(10,0,0,-10,0,5450)">
            <path d="M6.258,244C13.631,214.697 66.898,194.534 143.209,178.959L145.12,207.803C184.57,230.386 242.68,236.233 305.776,237.607C400.182,233.501 456.395,222.327 468.864,203.057L468.864,182.458C549.764,194.919 596.938,215.531 606.161,245.314C591.35,291.799 480.964,313.387 305.776,318.094C142.733,314.951 22.431,297.231 6.258,244Z" style="fill:url(#_Linear1);stroke:black;stroke-width:3.2px;"/>
        </g>
        <g transform="matrix(10,0,0,-10,0,5450)">
            <path d="M145.12,203.057C161.186,182.379 220.924,170.728 306.106,173.086C365.37,167.734 443.081,178.261 468.864,203.057C429.617,232.706 370.118,237.831 306.106,237.599C226.448,237.31 150.387,217.39 145.12,203.057Z" style="fill:url(#_Linear2);stroke:black;stroke-width:3.2px;"/>
        </g>
        <g transform="matrix(10,0,0,-10,0,5450)">
            <path d="M145.12,203.057L151,124.935C168.206,71.822 191.812,44.577 218.985,31.75C251.564,13.921 278.108,6.528 299.952,7.259C339.192,6.42 371.165,16.521 397.607,34.953C424.539,53.614 445.709,79.75 461.233,113.207L468.864,195.635C483.632,225.88 358.618,232.516 305.841,237.607C229.087,236.497 166.131,226.291 145.12,203.057Z" style="fill:rgb(169,240,246);fill-opacity:0.37;stroke:black;stroke-width:3.2px;"/>
        </g>
        <g transform="matrix(10,0,0,-10,0,5450)">
            <path d="M151,313.881C177.637,335.321 254.907,345.909 305.776,345.651C417.125,348.705 440.658,336.027 462.023,313.881C356.799,319.981 253.078,320.164 151,313.881" style="fill:rgb(65,65,65);stroke:black;stroke-width:3.2px;"/>
        </g>
        <path d="M2885,5440C2584,5406 2292,5291 2055,5114C1731,4873 1504,4523 1416,4129C1395,4033 1370,3813 1370,3710C1370,3685 1366,3684 1177,3646C533,3517 137,3333 28,3112C-6,3042 -4,2944 34,2871C148,2651 578,2460 1242,2335C1352,2314 1391,2303 1395,2291C1402,2267 1455,2215 1503,2182C1687,2057 2156,1959 2715,1930C3483,1890 4281,1989 4591,2164C4645,2195 4715,2259 4724,2287C4729,2304 4753,2311 4873,2334C5536,2460 5975,2654 6085,2870C6245,3185 5821,3472 4939,3648L4752,3685L4745,3810C4730,4098 4676,4302 4553,4540C4276,5079 3719,5428 3112,5445C3031,5447 2929,5445 2885,5440ZM3355,5290C3837,5192 4234,4890 4452,4456C4539,4284 4588,4108 4609,3901C4621,3793 4620.81,3412.32 4620.23,3403.34C4612.66,3285.96 3807.12,3089.81 3012.88,3108.01C1695.9,3138.2 1512.01,3359.39 1510,3360.9C1501,3369.9 1499,3748 1510,3882C1549,4349 1781,4758 2164,5034C2257,5100 2468,5207 2583,5244C2658,5268 2830,5305 2915,5314C3007,5324 3257,5310 3355,5290ZM1380,3456L1380,3363L1421,3316C1490,3238 1656,3170 1899,3120C2544,2989 3582,2989 4217,3121C4461,3171 4604,3226 4684,3300C4733,3345 4747,3385 4749,3480C4750,3515 4752,3546 4755,3548C4760,3554 4954,3514 5136,3470C5361,3416 5552,3350 5708,3274C5913,3173 6006,3071 5986,2967C5958,2817 5633,2647 5145,2526C3700,2168 1281,2272 391,2730C181,2838 99,2946 144,3054C215,3223 585,3389 1175,3514C1401,3562 1380,3568 1380,3456ZM1850,2245C2569,2162 3520,2162 4266,2245C4388,2259 4494,2270 4501,2269C4524,2268 4416,2223 4328,2197C3632,1989 2262,2007 1690,2232C1572,2279 1563,2278 1850,2245Z" style="fill-rule:nonzero;"/>
        <g transform="matrix(10,0,0,-10,0,5450)">
            <path d="M332.947,68.598L328.259,80.014L342.685,82.08L360.318,72.447L368.211,85.134L377.622,72.485L399.4,82.28L400.664,59.065L389.066,54.253L391.332,39.969L373.902,42.317L363.491,27.151L359.676,39.43L333.422,29.733L343.732,41.077L320.823,49.991L341.05,51.952L315.044,60.099L332.947,68.598Z" style="fill:white;stroke:black;stroke-width:17.62px;"/>
        </g>
        <path d="M421,2984C374,2924 406,2896 590,2836C1551,2521 3003,2417 4315,2571C4767,2623 5214,2714 5549,2822C5657,2857 5687,2871 5704,2893C5723,2919 5723,2923 5710,2947C5681,2997 5672,2997 5533,2952C5066,2800 4501,2703 3775,2650C3539,2632 2888,2626 2625,2639C1829,2678 1156,2786 627,2960C544,2988 469,3010 459,3010C449,3010 432,2998 421,2984Z" style="fill-rule:nonzero;"/>
    </g>
    <path d="M0,574.124C0,574.124 163.377,551.816 378.197,557.876C434.636,559.467 499.27,514.821 562.654,470.77C567.852,467.158 574.323,468.879 579.499,465.3C583.729,462.375 591.981,462.841 596.19,459.97C600.208,457.23 609.809,453.935 613.802,451.269C617.449,448.835 622.218,443.664 625.841,441.311C630.406,438.346 627.899,434.445 632.419,431.642C634.942,430.079 637.494,424.312 640,422.808C676.466,400.928 706.159,385.617 737.11,387.083C832.245,391.59 928.929,520.515 1017.35,515.747C1104.53,511.046 1280,557.876 1280,557.876L1148.61,728.307C1148.61,728.307 808.714,789.231 640,786.309C471.286,783.388 136.324,710.778 136.324,710.778L0,574.124Z" style="fill:rgb(23,75,36);"/>
    <path d="M0,574.124C0,574.124 136.653,504.296 351.473,510.355C463.439,513.513 646.736,581.618 749.468,586.484C844.602,590.99 916.025,404.768 1004.45,400C1091.63,395.299 1280,557.876 1280,557.876C1280,557.876 1210.57,696.797 1144.75,721.695C1038.09,762.049 640,786.309 640,786.309C640,786.309 223.166,753.709 116.499,716.063C58.78,695.692 0,574.124 0,574.124Z" style="fill:rgb(21,96,40);"/>
    <g id="Comet" transform="matrix(1,0,0,1,674.346,283.965)">
        <path d="M312.515,416.047C292.171,404.086 278.467,381.675 278.467,356.024C278.467,317.819 308.869,286.801 346.315,286.801C357.92,286.801 368.848,289.78 378.405,295.029C379.863,294.667 381.398,294.473 382.985,294.473C392.409,294.473 400.06,301.307 400.06,309.724C400.06,310.92 399.905,312.085 399.612,313.204C408.723,324.988 414.163,339.863 414.163,356.024C414.163,367.046 411.633,377.47 407.134,386.721C407.216,387.52 407.258,388.336 407.258,389.168C407.258,397.905 402.593,404.998 396.847,404.998C396.077,404.998 395.327,404.871 394.605,404.63C382.299,417.356 365.203,425.247 346.315,425.247C344.469,425.247 342.64,425.172 340.835,425.024C338.613,430.341 333.255,434.093 327.005,434.093C318.768,434.093 312.08,427.575 312.08,419.546C312.08,418.34 312.231,417.168 312.515,416.047Z" style="fill:rgb(182,150,118);"/>
        <path d="M356.821,287.628C364.519,288.85 371.79,291.396 378.405,295.029C379.863,294.667 381.398,294.473 382.985,294.473C392.409,294.473 400.06,301.307 400.06,309.724C400.06,310.92 399.905,312.085 399.612,313.204C408.723,324.988 414.163,339.863 414.163,356.024C414.163,367.046 411.633,377.47 407.134,386.721C407.216,387.52 407.258,388.336 407.258,389.168C407.258,397.905 402.593,404.998 396.847,404.998C396.077,404.998 395.327,404.871 394.605,404.63C382.299,417.356 365.203,425.247 346.315,425.247C344.469,425.247 342.64,425.172 340.835,425.024C338.613,430.341 333.255,434.093 327.005,434.093C318.768,434.093 312.08,427.575 312.08,419.546C312.08,418.34 312.231,417.168 312.515,416.047C308.212,413.518 304.207,410.52 300.564,407.123C308.502,408.641 322.827,411.069 331.163,410.616C343.14,409.964 359.683,408.579 366.707,402.061C373.731,395.543 370.361,379.416 373.306,371.508C375.657,365.198 385.449,360.98 384.38,354.613C383.311,348.245 369.349,342.157 366.895,333.302C363.551,321.233 364.586,305.094 356.821,287.628Z" style="fill:rgb(129,106,83);"/>
        <path d="M310.591,314.182C311.677,316.855 324.967,313.578 329.812,310.258C334.656,306.938 340.743,296.934 339.658,294.262C338.572,291.589 327.795,291.138 323.296,294.221C318.452,297.541 309.505,311.509 310.591,314.182Z" style="fill:rgb(78,71,67);"/>
        <path d="M335.428,351.314C333.405,355.699 332.364,368.471 334.178,372.705C335.857,376.621 342.451,377.719 346.315,376.716C350.179,375.713 354.955,371.039 357.364,366.687C359.912,362.084 363.444,352.476 361.603,349.094C359.761,345.712 346.315,346.393 346.315,346.393C346.315,346.393 337.096,347.698 335.428,351.314Z" style="fill:rgb(78,71,67);"/>
        <path d="M313.931,360.447C311.828,359.924 308.202,360.046 306,361.555C303.772,363.081 300.564,367.078 300.564,369.605C300.564,372.132 303.391,376.148 306,376.716C308.609,377.284 314.114,375.016 316.217,373.013C318.306,371.022 318.999,366.789 318.619,364.695C318.241,362.621 315.977,360.956 313.931,360.447Z" style="fill:rgb(78,71,67);"/>
        <path d="M344.189,387.005C343.823,388.805 346.855,392.561 349.288,393.93C351.722,395.299 357.379,396.583 358.792,395.219C360.206,393.855 358.988,387.76 357.77,385.745C356.596,383.803 353.744,382.921 351.485,383.131C349.221,383.341 344.555,385.206 344.189,387.005Z" style="fill:rgb(78,71,67);"/>
        <path d="M315.946,418.38C314.868,419.304 317.407,425.715 320.158,427.41C322.909,429.106 331.376,429.475 332.454,428.551C333.532,427.627 329.144,423.418 326.627,421.867C323.876,420.172 317.025,417.456 315.946,418.38Z" style="fill:rgb(78,71,67);"/>
    </g>
    <path d="M0,574.124C0,574.124 199.343,602.508 414.163,608.567C526.129,611.725 646.736,581.618 749.468,586.484C844.602,590.99 942.13,642.531 1030.55,637.763C1117.73,633.062 1280,557.876 1280,557.876C1280,557.876 1275.28,697.552 1148.62,739.077C1040.25,774.607 810.509,796.962 640,794.182C469.025,791.395 229.788,758.985 122.768,722.355C5.894,682.352 0,574.124 0,574.124Z" style="fill:rgb(0,119,30);"/>
    <g id="Rand">
        <path d="M1093.16,623.848C1096.28,622.886 1100.53,627.997 1100.53,630.302C1100.53,638.771 1064.89,645.646 1020.99,645.646C977.095,645.646 941.456,638.771 941.456,630.302C941.456,627.997 941.283,627.732 944.44,628.565C957.006,631.88 989.044,634.844 1020.99,634.844C1052.94,634.844 1077.02,628.828 1093.16,623.848Z" style="fill:rgb(119,62,0);"/>
        <path d="M945.076,634.789C994.076,643.557 1042.26,642.1 1089.63,630.581L1089.63,638.628C1068.48,644.003 1043.5,646.175 1015.3,645.646C978.54,644.106 955.205,640.476 945.076,634.789Z" style="fill:rgb(102,62,15);stroke:rgb(102,62,15);stroke-width:1px;"/>
    </g>
    <g id="Schutt">
        <g transform="matrix(1,0,0,1,226.134,152.534)">
            <path d="M856.788,475.839C856.788,475.839 858.31,481.306 860.018,482.406C861.726,483.506 867.036,482.439 867.036,482.439C867.036,482.439 870.197,477.714 870.196,475.773C870.195,473.833 867.029,470.795 867.029,470.795C867.029,470.795 862.58,468.502 860.873,469.343C859.166,470.184 856.788,475.839 856.788,475.839Z" style="fill:rgb(97,57,13);"/>
        </g>
        <g transform="matrix(1,0,0,1,242.541,187.47)">
            <path d="M856.788,475.839C856.788,475.839 858.31,481.306 860.018,482.406C861.726,483.506 867.036,482.439 867.036,482.439C867.036,482.439 870.197,477.714 870.196,475.773C870.195,473.833 867.029,470.795 867.029,470.795C867.029,470.795 862.58,468.502 860.873,469.343C859.166,470.184 856.788,475.839 856.788,475.839Z" style="fill:rgb(97,57,13);"/>
        </g>
        <g transform="matrix(1,0,0,1,285.913,163.26)">
            <path d="M856.788,475.839C856.788,475.839 858.31,481.306 860.018,482.406C861.726,483.506 867.036,482.439 867.036,482.439C867.036,482.439 870.197,477.714 870.196,475.773C870.195,473.833 867.029,470.795 867.029,470.795C867.029,470.795 862.58,468.502 860.873,469.343C859.166,470.184 856.788,475.839 856.788,475.839Z" style="fill:rgb(97,57,13);"/>
        </g>
        <g transform="matrix(1,0,0,1,239.541,156.387)">
            <path d="M856.788,475.839C856.788,475.839 858.31,481.306 860.018,482.406C861.726,483.506 867.036,482.439 867.036,482.439C867.036,482.439 870.197,477.714 870.196,475.773C870.195,473.833 867.029,470.795 867.029,470.795C867.029,470.795 862.58,468.502 860.873,469.343C859.166,470.184 856.788,475.839 856.788,475.839Z" style="fill:rgb(97,57,13);"/>
        </g>
        <g transform="matrix(1,0,0,1,235.837,149.514)">
            <path d="M856.788,475.839C856.788,475.839 858.31,481.306 860.018,482.406C861.726,483.506 867.036,482.439 867.036,482.439C867.036,482.439 870.197,477.714 870.196,475.773C870.195,473.833 867.029,470.795 867.029,470.795C867.029,470.795 862.58,468.502 860.873,469.343C859.166,470.184 856.788,475.839 856.788,475.839Z" style="fill:rgb(97,57,13);stroke:rgb(91,54,15);stroke-width:1px;"/>
        </g>
        <g transform="matrix(0.766394,0,0,0.61228,432.921,343.325)">
            <path d="M856.788,475.839C856.788,475.839 858.31,481.306 860.018,482.406C861.726,483.506 867.036,482.439 867.036,482.439C867.036,482.439 870.197,477.714 870.196,475.773C870.195,473.833 867.029,470.795 867.029,470.795C867.029,470.795 862.58,468.502 860.873,469.343C859.166,470.184 856.788,475.839 856.788,475.839Z" style="fill:rgb(130,80,26);"/>
        </g>
        <g transform="matrix(0.766394,0,0,0.61228,462.976,338.248)">
            <path d="M856.788,475.839C856.788,475.839 858.31,481.306 860.018,482.406C861.726,483.506 867.036,482.439 867.036,482.439C867.036,482.439 870.197,477.714 870.196,475.773C870.195,473.833 867.029,470.795 867.029,470.795C867.029,470.795 862.58,468.502 860.873,469.343C859.166,470.184 856.788,475.839 856.788,475.839Z" style="fill:rgb(130,80,26);"/>
        </g>
        <g transform="matrix(0.766394,0,0,0.61228,456.272,349.05)">
            <path d="M856.788,475.839C856.788,475.839 858.31,481.306 860.018,482.406C861.726,483.506 867.036,482.439 867.036,482.439C867.036,482.439 870.197,477.714 870.196,475.773C870.195,473.833 867.029,470.795 867.029,470.795C867.029,470.795 862.58,468.502 860.873,469.343C859.166,470.184 856.788,475.839 856.788,475.839Z" style="fill:rgb(130,80,26);"/>
        </g>
        <g transform="matrix(0.766394,0,0,0.61228,497.382,363.29)">
            <path d="M856.788,475.839C856.788,475.839 858.31,481.306 860.018,482.406C861.726,483.506 867.036,482.439 867.036,482.439C867.036,482.439 870.197,477.714 870.196,475.773C870.195,473.833 867.029,470.795 867.029,470.795C867.029,470.795 862.58,468.502 860.873,469.343C859.166,470.184 856.788,475.839 856.788,475.839Z" style="fill:rgb(130,80,26);"/>
        </g>
        <g transform="matrix(0.766394,0,0,0.61228,477.689,360.956)">
            <path d="M856.788,475.839C856.788,475.839 858.31,481.306 860.018,482.406C861.726,483.506 867.036,482.439 867.036,482.439C867.036,482.439 870.197,477.714 870.196,475.773C870.195,473.833 867.029,470.795 867.029,470.795C867.029,470.795 862.58,468.502 860.873,469.343C859.166,470.184 856.788,475.839 856.788,475.839Z" style="fill:rgb(130,80,26);"/>
        </g>
        <g transform="matrix(0.766394,0,0,0.61228,475.788,401.175)">
            <path d="M856.788,475.839C856.788,475.839 858.31,481.306 860.018,482.406C861.726,483.506 867.036,482.439 867.036,482.439C867.036,482.439 870.197,477.714 870.196,475.773C870.195,473.833 867.029,470.795 867.029,470.795C867.029,470.795 862.58,468.502 860.873,469.343C859.166,470.184 856.788,475.839 856.788,475.839Z" style="fill:rgb(130,80,26);"/>
        </g>
        <g transform="matrix(0.5,0,0,0.373321,659.441,460.916)">
            <path d="M856.788,475.839C856.788,475.839 858.31,481.306 860.018,482.406C861.726,483.506 867.036,482.439 867.036,482.439C867.036,482.439 870.197,477.714 870.196,475.773C870.195,473.833 867.029,470.795 867.029,470.795C867.029,470.795 862.58,468.502 860.873,469.343C859.166,470.184 856.788,475.839 856.788,475.839Z" style="fill:rgb(112,78,42);"/>
        </g>
        <g transform="matrix(0.5,0,0,0.373321,679.261,470.499)">
            <path d="M856.788,475.839C856.788,475.839 858.31,481.306 860.018,482.406C861.726,483.506 867.036,482.439 867.036,482.439C867.036,482.439 870.197,477.714 870.196,475.773C870.195,473.833 867.029,470.795 867.029,470.795C867.029,470.795 862.58,468.502 860.873,469.343C859.166,470.184 856.788,475.839 856.788,475.839Z" style="fill:rgb(112,78,42);"/>
        </g>
        <g transform="matrix(0.5,0,0,0.373321,694.791,465.368)">
            <path d="M856.788,475.839C856.788,475.839 858.31,481.306 860.018,482.406C861.726,483.506 867.036,482.439 867.036,482.439C867.036,482.439 870.197,477.714 870.196,475.773C870.195,473.833 867.029,470.795 867.029,470.795C867.029,470.795 862.58,468.502 860.873,469.343C859.166,470.184 856.788,475.839 856.788,475.839Z" style="fill:rgb(112,78,42);"/>
        </g>
        <g transform="matrix(0.5,0,0,0.373321,694.791,481.25)">
            <path d="M856.788,475.839C856.788,475.839 858.31,481.306 860.018,482.406C861.726,483.506 867.036,482.439 867.036,482.439C867.036,482.439 870.197,477.714 870.196,475.773C870.195,473.833 867.029,470.795 867.029,470.795C867.029,470.795 862.58,468.502 860.873,469.343C859.166,470.184 856.788,475.839 856.788,475.839Z" style="fill:rgb(112,78,42);"/>
        </g>
        <g transform="matrix(0.5,0,0,0.373321,656.763,459.475)">
            <path d="M856.788,475.839C856.788,475.839 858.31,481.306 860.018,482.406C861.726,483.506 867.036,482.439 867.036,482.439C867.036,482.439 870.197,477.714 870.196,475.773C870.195,473.833 867.029,470.795 867.029,470.795C867.029,470.795 862.58,468.502 860.873,469.343C859.166,470.184 856.788,475.839 856.788,475.839Z" style="fill:rgb(81,64,46);"/>
        </g>
        <g transform="matrix(0.5,0,0,0.373321,654.461,462.041)">
            <path d="M856.788,475.839C856.788,475.839 858.31,481.306 860.018,482.406C861.726,483.506 867.036,482.439 867.036,482.439C867.036,482.439 870.197,477.714 870.196,475.773C870.195,473.833 867.029,470.795 867.029,470.795C867.029,470.795 862.58,468.502 860.873,469.343C859.166,470.184 856.788,475.839 856.788,475.839Z" style="fill:rgb(56,50,44);"/>
        </g>
        <g transform="matrix(0.5,0,0,0.373321,660.644,458.35)">
            <path d="M856.788,475.839C856.788,475.839 858.31,481.306 860.018,482.406C861.726,483.506 867.036,482.439 867.036,482.439C867.036,482.439 870.197,477.714 870.196,475.773C870.195,473.833 867.029,470.795 867.029,470.795C867.029,470.795 862.58,468.502 860.873,469.343C859.166,470.184 856.788,475.839 856.788,475.839Z" style="fill:rgb(56,50,44);"/>
        </g>
    </g>
    <defs>
        <linearGradient id="_Linear1" x1="0" y1="0" x2="1" y2="0" gradientUnits="userSpaceOnUse" gradientTransform="matrix(119,64.7963,-64.7963,119,118.728,204.666)"><stop offset="0" style="stop-color:rgb(184,184,184);stop-opacity:1"/><stop offset="1" style="stop-color:rgb(122,122,122);stop-opacity:1"/></linearGradient>
        <linearGradient id="_Linear2" x1="0" y1="0" x2="1" y2="0" gradientUnits="userSpaceOnUse" gradientTransform="matrix(-1.15071,37.6676,-37.6676,-1.15071,306.992,171.725)"><stop offset="0" style="stop-color:rgb(155,155,155);stop-opacity:1"/><stop offset="1" style="stop-color:rgb(99,99,99);stop-opacity:1"/></linearGradient>
    </defs>
</svg>
