<?xml version="1.0" encoding="UTF-8" standalone="no"?>
<!DOCTYPE svg PUBLIC "-//W3C//DTD SVG 1.1//EN" "http://www.w3.org/Graphics/SVG/1.1/DTD/svg11.dtd">
<svg width="100%" height="100%" viewBox="0 0 612 545" version="1.1" xmlns="http://www.w3.org/2000/svg" xmlns:xlink="http://www.w3.org/1999/xlink" xml:space="preserve" xmlns:serif="http://www.serif.com/" style="fill-rule:evenodd;clip-rule:evenodd;stroke-linecap:round;stroke-linejoin:round;stroke-miterlimit:1.5;">
    <g transform="matrix(0.1,0,0,-0.1,0,545)">
        <g transform="matrix(10,0,0,-10,0,5450)">
            <path d="M6.258,244C13.631,214.697 66.898,194.534 143.209,178.959L145.12,207.803C184.57,230.386 242.68,236.233 305.776,237.607C400.182,233.501 456.395,222.327 468.864,203.057L468.864,182.458C549.764,194.919 596.938,215.531 606.161,245.314C591.35,291.799 480.964,313.387 305.776,318.094C142.733,314.951 22.431,297.231 6.258,244Z" style="fill:url(#_Linear1);stroke:black;stroke-width:1px;"/>
        </g>
        <g transform="matrix(10,0,0,-10,0,5450)">
            <path d="M145.12,203.057C161.186,182.379 220.924,170.728 306.106,173.086C365.37,167.734 443.081,178.261 468.864,203.057C429.617,232.706 370.118,237.831 306.106,237.599C226.448,237.31 150.387,217.39 145.12,203.057Z" style="fill:url(#_Linear2);stroke:black;stroke-width:1px;"/>
        </g>
        <g transform="matrix(7.59845,-0.107429,-0.11943,-8.44727,752.066,5115.73)">
            <path d="M356,98.56C356,81.291 340.437,67.292 321.239,67.292C311.363,67.292 300.611,67.292 290.742,67.292C271.606,67.292 256.093,81.246 256.093,98.459C256.093,146.461 256.093,233 256.093,233L356,233L356,98.56Z" style="fill:rgb(20,148,0);"/>
        </g>
        <g transform="matrix(10,0,0,-10,0,5450)">
            <path d="M145.12,203.057L151,124.935C168.206,71.822 191.812,44.577 218.985,31.75C251.564,13.921 278.108,6.528 299.952,7.259C339.192,6.42 371.165,16.521 397.607,34.953C424.539,53.614 445.709,79.75 461.233,113.207L468.864,195.635C483.632,225.88 358.618,232.516 305.841,237.607C229.087,236.497 166.131,226.291 145.12,203.057Z" style="fill:rgb(169,240,246);fill-opacity:0.37;stroke:black;stroke-width:1px;"/>
        </g>
        <g transform="matrix(10,0,0,-10,0,5450)">
            <path d="M151,313.881C177.637,335.321 254.907,345.909 305.776,345.651C417.125,348.705 440.658,336.027 462.023,313.881C356.799,319.981 253.078,320.164 151,313.881" style="fill:rgb(65,65,65);stroke:black;stroke-width:1px;"/>
        </g>
        <path d="M2885,5440C2584,5406 2292,5291 2055,5114C1731,4873 1504,4523 1416,4129C1395,4033 1370,3813 1370,3710C1370,3685 1366,3684 1177,3646C533,3517 137,3333 28,3112C-6,3042 -4,2944 34,2871C148,2651 578,2460 1242,2335C1352,2314 1391,2303 1395,2291C1402,2267 1455,2215 1503,2182C1687,2057 2156,1959 2715,1930C3483,1890 4281,1989 4591,2164C4645,2195 4715,2259 4724,2287C4729,2304 4753,2311 4873,2334C5536,2460 5975,2654 6085,2870C6245,3185 5821,3472 4939,3648L4752,3685L4745,3810C4730,4098 4676,4302 4553,4540C4276,5079 3719,5428 3112,5445C3031,5447 2929,5445 2885,5440ZM3355,5290C3837,5192 4234,4890 4452,4456C4539,4284 4588,4108 4609,3901C4621,3793 4624,3590 4615,3590C4612,3590 4593,3598 4572,3609C4432,3679 4083,3752 3755,3780C3684,3786 3611,3793 3594,3796L3562,3800L3558,4018C3552,4267 3540,4324 3470,4424L3429,4482L3505,4568C3550,4621 3580,4664 3580,4677C3580,4708 3546,4740 3514,4740C3487,4740 3469,4724 3383,4625L3331,4565L3298,4582C3220,4622 3181,4632 3088,4637C2982,4643 2928,4634 2847,4595C2819,4581 2794,4570 2791,4570C2788,4570 2752,4608 2711,4655C2631,4748 2601,4761 2560,4720C2524,4684 2534,4660 2643,4536L2691,4482L2657,4433C2579,4322 2560,4234 2560,3973L2560,3801L2518,3796C2494,3793 2421,3786 2355,3780C2032,3750 1679,3676 1549,3609C1529,3599 1510,3594 1506,3597C1497,3606 1499,3748 1510,3882C1549,4349 1781,4758 2164,5034C2257,5100 2468,5207 2583,5244C2658,5268 2830,5305 2915,5314C3007,5324 3257,5310 3355,5290ZM3218,4476C3327,4420 3398,4327 3420,4211C3426,4179 3430,3947 3430,3639L3430,3120L2689,3120L2692,3673C2695,4200 2696,4227 2715,4272C2761,4379 2838,4455 2938,4493C3011,4520 3148,4512 3218,4476ZM2560,3653C2563,3540 2558,3175 2555,3171C2548,3164 2297,3188 2144,3210C1774,3264 1510,3352 1510,3421C1510,3461 1692,3537 1885,3579C2048,3614 2360,3657 2543,3669C2553,3670 2560,3663 2560,3653ZM3715,3655C4065,3625 4397,3554 4543,3477C4615,3439 4627,3420 4597,3392C4496,3300 4097,3208 3652,3174L3560,3167L3560,3671L3603,3666C3626,3663 3677,3658 3715,3655ZM1380,3456L1380,3363L1421,3316C1490,3238 1656,3170 1899,3120C2544,2989 3582,2989 4217,3121C4461,3171 4604,3226 4684,3300C4733,3345 4747,3385 4749,3480C4750,3515 4752,3546 4755,3548C4760,3554 4954,3514 5136,3470C5361,3416 5552,3350 5708,3274C5913,3173 6006,3071 5986,2967C5958,2817 5633,2647 5145,2526C3700,2168 1281,2272 391,2730C181,2838 99,2946 144,3054C215,3223 585,3389 1175,3514C1401,3562 1380,3568 1380,3456ZM1850,2245C2569,2162 3520,2162 4266,2245C4388,2259 4494,2270 4501,2269C4524,2268 4416,2223 4328,2197C3632,1989 2262,2007 1690,2232C1572,2279 1563,2278 1850,2245Z" style="fill-rule:nonzero;"/>
        <path d="M2840,5165C2706,5143 2585,5104 2455,5041C2320,4975 2222,4909 2125,4819C2057,4754 2045,4724 2074,4685C2099,4650 2143,4661 2207,4720C2582,5063 3148,5148 3598,4930C3691,4886 3719,4881 3743,4908C3763,4930 3765,4983 3747,4998C3697,5040 3510,5113 3370,5147C3237,5178 2974,5187 2840,5165Z" style="fill-rule:nonzero;"/>
        <path d="M3852,4874C3811,4846 3822,4806 3888,4744C3966,4669 3993,4655 4028,4672C4049,4682 4056,4693 4057,4720C4060,4759 4048,4776 3966,4848C3914,4893 3888,4899 3852,4874Z" style="fill-rule:nonzero;"/>
        <path d="M2976,4325C2880,4291 2810,4192 2810,4091C2810,3992 2876,3892 2966,3854C3010,3836 3097,3836 3151,3855C3209,3876 3275,3942 3295,3999C3326,4091 3305,4196 3242,4264C3179,4331 3065,4357 2976,4325ZM3120,4195C3189,4159 3200,4051 3141,3998C3097,3958 3024,3958 2980,3998C2943,4030 2930,4092 2950,4141C2976,4202 3057,4228 3120,4195Z" style="fill-rule:nonzero;"/>
        <path d="M3016,4134C2999,4118 2995,4073 3008,4054C3026,4027 3059,4019 3090,4035C3114,4048 3120,4057 3120,4084C3120,4141 3054,4173 3016,4134Z" style="fill-rule:nonzero;"/>
        <path d="M2800,3748C2763,3708 2774,3673 2842,3624C2962,3535 3134,3528 3254,3606C3336,3660 3360,3708 3324,3744C3293,3775 3263,3774 3221,3741C3119,3660 3010,3659 2900,3739C2849,3776 2828,3778 2800,3748Z" style="fill-rule:nonzero;"/>
        <path d="M421,2984C374,2924 406,2896 590,2836C1551,2521 3003,2417 4315,2571C4767,2623 5214,2714 5549,2822C5657,2857 5687,2871 5704,2893C5723,2919 5723,2923 5710,2947C5681,2997 5672,2997 5533,2952C5066,2800 4501,2703 3775,2650C3539,2632 2888,2626 2625,2639C1829,2678 1156,2786 627,2960C544,2988 469,3010 459,3010C449,3010 432,2998 421,2984Z" style="fill-rule:nonzero;"/>
        <g transform="matrix(1,0,0,1,64.4228,-80.7028)">
            <path d="M2626,1708C2612,1688 2610,1616 2610,1119C2610,583 2611,552 2628,537C2651,516 2690,515 2716,534C2734,548 2735,567 2738,1117C2740,1680 2740,1686 2720,1708C2693,1737 2646,1737 2626,1708Z" style="fill:white;fill-rule:nonzero;"/>
        </g>
        <g transform="matrix(1,0,0,1,-65.5772,-80.7028)">
            <path d="M2626,1708C2612,1688 2610,1616 2610,1119C2610,583 2611,552 2628,537C2651,516 2690,515 2716,534C2734,548 2735,567 2738,1117C2740,1680 2740,1686 2720,1708C2693,1737 2646,1737 2626,1708Z" style="fill:rgb(255,108,0);fill-rule:nonzero;"/>
        </g>
        <path d="M2626,1708C2612,1688 2610,1616 2610,1119C2610,583 2611,552 2628,537C2651,516 2690,515 2716,534C2734,548 2735,567 2738,1117C2740,1680 2740,1686 2720,1708C2693,1737 2646,1737 2626,1708Z" style="fill-rule:nonzero;"/>
        <g transform="matrix(1,0,0,1,65,-80.5053)">
            <path d="M3401,1704C3380,1678 3380,1669 3380,1128C3380,579 3382,549 3414,528C3434,514 3477,520 3493,538C3508,555 3510,610 3510,1127C3510,1666 3509,1698 3492,1713C3464,1738 3425,1734 3401,1704Z" style="fill:white;fill-rule:nonzero;"/>
        </g>
        <g transform="matrix(1,0,0,1,-45,-80.5053)">
            <path d="M3401,1704C3380,1678 3380,1669 3380,1128C3380,579 3382,549 3414,528C3434,514 3477,520 3493,538C3508,555 3510,610 3510,1127C3510,1666 3509,1698 3492,1713C3464,1738 3425,1734 3401,1704Z" style="fill:rgb(255,137,0);fill-rule:nonzero;"/>
        </g>
        <path d="M3401,1704C3380,1678 3380,1669 3380,1128C3380,579 3382,549 3414,528C3434,514 3477,520 3493,538C3508,555 3510,610 3510,1127C3510,1666 3509,1698 3492,1713C3464,1738 3425,1734 3401,1704Z" style="fill-rule:nonzero;"/>
        <g transform="matrix(1,0,0,1,57.069,29.1021)">
            <path d="M3016,1684C3002,1670 3000,1584 3002,847L3005,26L3033,10C3057,-3 3063,-3 3087,10C3102,18 3117,36 3120,48C3123,61 3123,433 3120,876C3115,1754 3119,1700 3058,1700C3043,1700 3024,1693 3016,1684Z" style="fill:white;fill-rule:nonzero;"/>
        </g>
        <g transform="matrix(1,0,0,1,-52.931,29.1021)">
            <path d="M3016,1684C3002,1670 3000,1584 3002,847L3005,26L3033,10C3057,-3 3063,-3 3087,10C3102,18 3117,36 3120,48C3123,61 3123,433 3120,876C3115,1754 3119,1700 3058,1700C3043,1700 3024,1693 3016,1684Z" style="fill:rgb(255,98,0);fill-rule:nonzero;"/>
        </g>
        <g transform="matrix(1,0,0,1,0.300793,106.027)">
            <path d="M3016,1684C3002,1670 3000,1584 3002,847L3005,26L3033,10C3057,-3 3063,-3 3087,10C3102,18 3117,36 3120,48C3123,61 3123,433 3120,876C3115,1754 3119,1700 3058,1700C3043,1700 3024,1693 3016,1684Z" style="fill-rule:nonzero;"/>
        </g>
    </g>
    <defs>
        <linearGradient id="_Linear1" x1="0" y1="0" x2="1" y2="0" gradientUnits="userSpaceOnUse" gradientTransform="matrix(119,64.7963,-64.7963,119,118.728,204.666)"><stop offset="0" style="stop-color:rgb(184,184,184);stop-opacity:1"/><stop offset="1" style="stop-color:rgb(122,122,122);stop-opacity:1"/></linearGradient>
        <linearGradient id="_Linear2" x1="0" y1="0" x2="1" y2="0" gradientUnits="userSpaceOnUse" gradientTransform="matrix(-1.15071,37.6676,-37.6676,-1.15071,306.992,171.725)"><stop offset="0" style="stop-color:rgb(155,155,155);stop-opacity:1"/><stop offset="1" style="stop-color:rgb(99,99,99);stop-opacity:1"/></linearGradient>
    </defs>
</svg>
